<svg xmlns="http://www.w3.org/2000/svg" width="23.226" height="23.226" viewBox="0 0 23.226 23.226">
  <path id="Caminho_23" data-name="Caminho 23" d="M4856.506,676.974a11.661,11.661,0,0,1-11.013,11.613v-9.4H4848l.337-2.135h-2.847v-2.884a.876.876,0,0,1,.786-.75h2.4l-.037-2.21h-2.361a3,3,0,0,0-3,2.96v2.884h-2.322v2.135h2.322v9.327a11.63,11.63,0,1,1,13.224-11.537Zm-.749,0a10.864,10.864,0,1,0-13.224,10.639v-7.68h-2.322V676.3h2.322v-2.135a3.8,3.8,0,0,1,3.746-3.709h3.073l.074,3.709h-3.184V676.3h3l-.562,3.633h-2.435v7.829A10.913,10.913,0,0,0,4855.757,676.974Z" transform="translate(-4833.28 -665.361)" fill="#8368e0"/>
</svg>
