<svg xmlns="http://www.w3.org/2000/svg" width="24.226" height="24.226" viewBox="0 0 24.226 24.226">
  <g id="Grupo_31" data-name="Grupo 31" transform="translate(-4901.316 -664.374)">
    <g id="Grupo_30" data-name="Grupo 30">
      <g id="Grupo_13" data-name="Grupo 13">
        <g id="Grupo_12" data-name="Grupo 12">
          <path id="Caminho_25" data-name="Caminho 25" d="M4915.481,677.887h-1.5a.275.275,0,1,1,0-.549h1.5a.275.275,0,1,1,0,.549Z" fill="#8368e0"/>
        </g>
      </g>
      <g id="Grupo_15" data-name="Grupo 15">
        <g id="Grupo_14" data-name="Grupo 14">
          <path id="Caminho_26" data-name="Caminho 26" d="M4915.077,680.687l-.04,0a.274.274,0,0,1-.232-.311l.4-2.8a.275.275,0,1,1,.544.078l-.4,2.8A.274.274,0,0,1,4915.077,680.687Z" fill="#8368e0"/>
        </g>
      </g>
      <g id="Grupo_17" data-name="Grupo 17">
        <g id="Grupo_16" data-name="Grupo 16">
          <path id="Caminho_27" data-name="Caminho 27" d="M4915.478,673.474a.274.274,0,0,1-.271-.235l-.4-2.78a.274.274,0,0,1,.543-.079l.4,2.78a.273.273,0,0,1-.232.311Z" fill="#8368e0"/>
        </g>
      </g>
      <g id="Grupo_19" data-name="Grupo 19">
        <g id="Grupo_18" data-name="Grupo 18">
          <path id="Caminho_28" data-name="Caminho 28" d="M4915.478,673.474h-.937a.275.275,0,1,1,0-.549h.937a.275.275,0,1,1,0,.549Z" fill="#8368e0"/>
        </g>
      </g>
      <g id="Grupo_21" data-name="Grupo 21">
        <g id="Grupo_20" data-name="Grupo 20">
          <path id="Caminho_29" data-name="Caminho 29" d="M4910.259,674.9a.274.274,0,0,1-.165-.494,7.463,7.463,0,0,1,4.446-1.481.275.275,0,1,1,0,.549,6.915,6.915,0,0,0-4.117,1.371A.271.271,0,0,1,4910.259,674.9Z" fill="#8368e0"/>
        </g>
      </g>
      <g id="Grupo_23" data-name="Grupo 23">
        <g id="Grupo_22" data-name="Grupo 22">
          <path id="Caminho_30" data-name="Caminho 30" d="M4906.292,682.828a.267.267,0,0,1-.114-.025.274.274,0,0,1-.136-.363,8.743,8.743,0,0,1,7.937-5.1.275.275,0,0,1,0,.549,8.192,8.192,0,0,0-7.437,4.781A.276.276,0,0,1,4906.292,682.828Z" fill="#8368e0"/>
        </g>
      </g>
      <g id="Grupo_25" data-name="Grupo 25">
        <g id="Grupo_24" data-name="Grupo 24">
          <path id="Caminho_31" data-name="Caminho 31" d="M4906.292,682.828a.275.275,0,0,1-.275-.274,10.225,10.225,0,0,1,4.078-8.148.274.274,0,1,1,.329.439,9.675,9.675,0,0,0-3.858,7.709A.274.274,0,0,1,4906.292,682.828Z" fill="#8368e0"/>
        </g>
      </g>
      <g id="Grupo_27" data-name="Grupo 27">
        <g id="Grupo_26" data-name="Grupo 26">
          <path id="Caminho_32" data-name="Caminho 32" d="M4915.077,680.687a.272.272,0,0,1-.2-.09.275.275,0,0,1,.018-.388l5.49-5a.275.275,0,1,1,.37.406l-5.491,5A.275.275,0,0,1,4915.077,680.687Z" fill="#8368e0"/>
        </g>
      </g>
      <g id="Grupo_29" data-name="Grupo 29">
        <g id="Grupo_28" data-name="Grupo 28">
          <path id="Caminho_33" data-name="Caminho 33" d="M4920.567,675.69a.275.275,0,0,1-.185-.071l-5.49-5a.275.275,0,0,1,.369-.407l5.491,5a.274.274,0,0,1-.185.477Z" fill="#8368e0"/>
        </g>
      </g>
    </g>
  </g>
  <circle id="Elipse_1" data-name="Elipse 1" cx="11.613" cy="11.613" r="11.613" transform="translate(0.5 0.5)" fill="none" stroke="#8368e0" stroke-miterlimit="10" stroke-width="1"/>
</svg>
