<svg xmlns="http://www.w3.org/2000/svg" width="17.809" height="17.809" viewBox="0 0 17.809 17.809">
  <g id="Grupo_99" data-name="Grupo 99" transform="translate(-2454.967 -338.929)">
    <circle id="Elipse_12" data-name="Elipse 12" cx="8.905" cy="8.905" r="8.905" transform="translate(2454.967 338.929)" fill="#8368e0" style="mix-blend-mode: multiply;isolation: isolate"/>
    <path id="Caminho_141" data-name="Caminho 141" d="M2462.64,347.821h-.948V346.2h.948v-.379c0-.281,0-.563,0-.845a1.694,1.694,0,0,1,1.735-1.866c.481-.031.966-.008,1.448-.016.149,0,.224.043.221.205,0,.423-.006.846,0,1.268,0,.176-.077.226-.239.222-.281-.007-.563,0-.845,0-.221-.005-.354.1-.362.312-.014.349,0,.7,0,1.084h1.456c-.054.523-.1,1.007-.164,1.489-.007.054-.143.125-.221.128-.341.015-.683.006-1.077.006v.366c0,1.348-.006,2.7,0,4.044,0,.254-.052.363-.331.349a12.225,12.225,0,0,0-1.3,0c-.278.015-.333-.093-.33-.348.011-1.338,0-2.676,0-4.014Z" fill="#fff"/>
  </g>
</svg>
