<svg xmlns="http://www.w3.org/2000/svg" width="17.809" height="17.809" viewBox="0 0 17.809 17.809">
  <g id="Grupo_122" data-name="Grupo 122" transform="translate(-2430.349 -338.929)">
    <g id="Grupo_120" data-name="Grupo 120">
      <circle id="Elipse_15" data-name="Elipse 15" cx="8.905" cy="8.905" r="8.905" transform="translate(2430.349 338.929)" fill="#8368e0" style="mix-blend-mode: multiply;isolation: isolate"/>
    </g>
    <g id="Grupo_121" data-name="Grupo 121">
      <path id="Caminho_154" data-name="Caminho 154" d="M2437.257,348.694a.449.449,0,0,1-.634,0l-1.589-1.588a2.469,2.469,0,0,1,3.493-3.491l1.59,1.586a2.471,2.471,0,0,1,0,3.493.45.45,0,0,1-.635-.635,1.573,1.573,0,0,0,0-2.217l-1.582-1.592a1.572,1.572,0,0,0-2.217,2.217l1.589,1.588a.45.45,0,0,1-.011.635Z" fill="#fff"/>
      <path id="Caminho_155" data-name="Caminho 155" d="M2443.473,352.053a2.47,2.47,0,0,1-3.491,0l-1.588-1.588a2.473,2.473,0,0,1,0-3.49.45.45,0,0,1,.666.6c-.01.01-.02.021-.031.03a1.571,1.571,0,0,0,0,2.217l1.588,1.589a1.572,1.572,0,0,0,2.217-2.217l-1.586-1.587a.449.449,0,1,1,.6-.665l.031.031,1.59,1.584A2.47,2.47,0,0,1,2443.473,352.053Z" fill="#fff"/>
    </g>
  </g>
</svg>
