<svg xmlns="http://www.w3.org/2000/svg" width="161.464" height="91.749" viewBox="0 0 161.464 91.749">
  <path id="Caminho_1" data-name="Caminho 1" d="M4060.714,86.948q0,.705-.537.7h-3.6q-.539,0-.538-.7l.074-14.124.112-1.409-.037.241-2.818,11.659a1.292,1.292,0,0,1-.2.5.545.545,0,0,1-.426.131h-2.762a.515.515,0,0,1-.417-.131,1.651,1.651,0,0,1-.213-.5l-2.817-11.6.092,1.112.056,14.124q0,.705-.537.7h-3.615q-.519,0-.519-.7V62.685q0-.686.538-.686h4.782c.21,0,.346.056.408.167a1.963,1.963,0,0,1,.166.482l3.281,12.771.148,1,.167-.982,3.318-12.79a1.909,1.909,0,0,1,.167-.482c.062-.111.2-.167.408-.167h4.782q.519,0,.519.686Z" transform="translate(-4041.982 -61.61)" fill="#001526"/>
  <path id="Caminho_2" data-name="Caminho 2" d="M4077.619,86.967q.185.686-.353.685h-3.836a.929.929,0,0,1-.5-.138.6.6,0,0,1-.259-.473l-.482-3.1h-4.152l-.464,3.1a.647.647,0,0,1-.278.473.9.9,0,0,1-.482.138h-3.836q-.557,0-.371-.7l5.134-24.3q.167-.648.723-.649h3.3a.735.735,0,0,1,.742.649Zm-8.971-6.951h2.928l-1.26-8.23-.2-2.168-.2,2.168Z" transform="translate(-4041.982 -61.61)" fill="#001526"/>
  <path id="Caminho_3" data-name="Caminho 3" d="M4079.509,62.722a.786.786,0,0,1,.167-.528.6.6,0,0,1,.482-.195h6.691a7.106,7.106,0,0,1,2.725.519,6.5,6.5,0,0,1,3.6,3.531,6.557,6.557,0,0,1,.519,2.6v5.931a6.637,6.637,0,0,1-1.956,4.745,6.81,6.81,0,0,1-2.168,1.437,6.915,6.915,0,0,1-2.716.528h-2.261v5.653q0,.705-.63.7h-3.8q-.649,0-.649-.7Zm6.951,14.106a2.028,2.028,0,0,0,1.566-.631,2.227,2.227,0,0,0,.584-1.575V68.746a2.251,2.251,0,0,0-.593-1.621,2.079,2.079,0,0,0-1.575-.621h-1.854V76.828Z" transform="translate(-4041.982 -61.61)" fill="#001526"/>
  <path id="Caminho_4" data-name="Caminho 4" d="M4108,86.967c.124.457.006.685-.352.685h-3.837a.928.928,0,0,1-.5-.138.6.6,0,0,1-.26-.473l-.482-3.1h-4.152l-.463,3.1a.651.651,0,0,1-.278.473.9.9,0,0,1-.482.138h-3.837c-.371,0-.494-.234-.371-.7l5.135-24.3q.166-.648.723-.649h3.3a.734.734,0,0,1,.741.649Zm-8.971-6.951h2.929l-1.261-8.23-.2-2.168-.2,2.168Z" transform="translate(-4041.982 -61.61)" fill="#001526"/>
  <path id="Caminho_5" data-name="Caminho 5" d="M4118.693,62.722a.787.787,0,0,1,.167-.528.6.6,0,0,1,.482-.195h6.524a8.634,8.634,0,0,1,2.744.427,6.355,6.355,0,0,1,2.224,1.26,5.841,5.841,0,0,1,1.483,2.057,7,7,0,0,1,.537,2.836V81.072a7,7,0,0,1-.537,2.836,5.889,5.889,0,0,1-1.474,2.058,6.264,6.264,0,0,1-2.206,1.26,8.544,8.544,0,0,1-2.734.426h-6.561q-.649,0-.649-.7Zm7.025,20.463a2.192,2.192,0,0,0,.843-.194,1.939,1.939,0,0,0,.649-.482,2.233,2.233,0,0,0,.417-.705,2.493,2.493,0,0,0,.148-.88V68.783A2.009,2.009,0,0,0,4125.7,66.5h-1.927V83.185Z" transform="translate(-4041.982 -61.61)" fill="#001526"/>
  <path id="Caminho_6" data-name="Caminho 6" d="M4135.116,68.042a6.232,6.232,0,0,1,.565-2.7,6.029,6.029,0,0,1,1.538-2.03,6.78,6.78,0,0,1,2.252-1.269,8.646,8.646,0,0,1,5.422,0,6.848,6.848,0,0,1,2.261,1.26,6.035,6.035,0,0,1,1.548,2.021,6.194,6.194,0,0,1,.575,2.715V81.628a6.062,6.062,0,0,1-2.123,4.727,6.764,6.764,0,0,1-2.261,1.27,8.43,8.43,0,0,1-2.715.435,8.025,8.025,0,0,1-2.707-.454,7.059,7.059,0,0,1-2.252-1.288,6.054,6.054,0,0,1-1.538-2.021,6.122,6.122,0,0,1-.565-2.669Zm5.078,13.327a2.674,2.674,0,0,0,.13.843,2.125,2.125,0,0,0,.38.7,2.039,2.039,0,0,0,2.975.065,2.241,2.241,0,0,0,.519-1.5V68.32a2.814,2.814,0,0,0-.13-.853,2.159,2.159,0,0,0-.389-.723,1.927,1.927,0,0,0-.63-.5,1.851,1.851,0,0,0-.834-.185,1.889,1.889,0,0,0-.853.185,1.925,1.925,0,0,0-.63.5,2.292,2.292,0,0,0-.4.723,2.623,2.623,0,0,0-.139.853Z" transform="translate(-4041.982 -61.61)" fill="#001526"/>
  <path id="Caminho_10" data-name="Caminho 10" d="M4149.378,89.958a.391.391,0,0,0-.324-.133H4042.426a.41.41,0,0,0-.33.133.54.54,0,0,0-.114.362v22.725q0,.483.444.483h106.628q.431,0,.432-.483V90.32A.558.558,0,0,0,4149.378,89.958Zm-96.623,16.1a4.326,4.326,0,0,1-.366,1.814,4.01,4.01,0,0,1-1,1.364,4.557,4.557,0,0,1-1.467.864,5.1,5.1,0,0,1-1.76.3,5.167,5.167,0,0,1-1.857-.346,3.762,3.762,0,0,1-1.54-1.09,1.149,1.149,0,0,1-.085-.14.781.781,0,0,1-.073-.195.721.721,0,0,1-.019-.213.308.308,0,0,1,.067-.183l1.157-1.412a.363.363,0,0,1,.335-.195.548.548,0,0,1,.371.195,2.347,2.347,0,0,0,.664.462,1.856,1.856,0,0,0,.81.183,1.524,1.524,0,0,0,.633-.122,1.194,1.194,0,0,0,.444-.341,1.452,1.452,0,0,0,.262-.511,2.207,2.207,0,0,0,.085-.621V93.751a.435.435,0,0,1,.128-.371.418.418,0,0,1,.238-.091h2.52c.3,0,.451.174.451.523Zm10.97.121a3.979,3.979,0,0,1-1.394,3.105,4.433,4.433,0,0,1-1.485.834,5.529,5.529,0,0,1-1.784.286,5.272,5.272,0,0,1-1.778-.3,4.635,4.635,0,0,1-1.479-.846,3.967,3.967,0,0,1-1.011-1.327,4.021,4.021,0,0,1-.371-1.754V97.258a4.085,4.085,0,0,1,.371-1.771,3.945,3.945,0,0,1,1.011-1.334,4.463,4.463,0,0,1,1.479-.834,5.5,5.5,0,0,1,1.778-.286,5.556,5.556,0,0,1,1.784.286,4.508,4.508,0,0,1,1.485.828,3.98,3.98,0,0,1,1.017,1.327,4.078,4.078,0,0,1,.377,1.784Zm11.215,3.805a.251.251,0,0,1-.244.153h-2.618a.412.412,0,0,1-.268-.073.591.591,0,0,1-.134-.317l-1.789-6.173h-1.072v6.112q0,.451-.414.451h-2.5q-.426,0-.426-.451V93.764a.518.518,0,0,1,.109-.348.4.4,0,0,1,.317-.127h4.4a4.569,4.569,0,0,1,1.789.347,4.328,4.328,0,0,1,2.363,2.338,4.3,4.3,0,0,1,.341,1.71v1.4a4.775,4.775,0,0,1-.147,1.217,4.221,4.221,0,0,1-.407,1.023,4.1,4.1,0,0,1-.621.834,4.375,4.375,0,0,1-.774.639l2.119,6.868A.445.445,0,0,1,4074.94,109.988Zm11.092-.31a.409.409,0,0,1-.462.463H4083.3a.692.692,0,0,1-.335-.091.525.525,0,0,1-.237-.3l-2.935-8.584-.317-1.169.073,1.217.11,8.463q.024.463-.426.463h-2.253q-.426,0-.426-.463V93.764a.518.518,0,0,1,.11-.348.393.393,0,0,1,.316-.127h2.289a.632.632,0,0,1,.305.109.59.59,0,0,1,.219.305l3.02,8.986.3,1.4-.061-1.278-.134-9.047a.547.547,0,0,1,.1-.335.386.386,0,0,1,.335-.14h2.252a.466.466,0,0,1,.28.1.424.424,0,0,1,.134.365Zm10.874.463h-2.521a.62.62,0,0,1-.329-.091.4.4,0,0,1-.17-.311l-.316-2.033h-2.728l-.3,2.033a.429.429,0,0,1-.182.311.6.6,0,0,1-.317.091h-2.52c-.244,0-.325-.154-.244-.463l3.373-15.963q.109-.426.475-.426h2.167a.481.481,0,0,1,.487.426l3.361,15.975Q4097.258,110.141,4096.906,110.141Zm9.351-.451q0,.451-.353.451h-7.1q-.426,0-.426-.463V93.764a.52.52,0,0,1,.11-.348.394.394,0,0,1,.316-.127h2.5a.377.377,0,0,1,.311.127.536.536,0,0,1,.1.348v13.442h4.189q.353,0,.353.414Zm4.737-.012q0,.463-.414.463h-2.5c-.285,0-.427-.154-.427-.463V93.764a.517.517,0,0,1,.11-.348.393.393,0,0,1,.317-.127h2.5a.376.376,0,0,1,.31.127.54.54,0,0,1,.1.348Zm10.416-1.875a4.137,4.137,0,0,1-.937,1.345,4.487,4.487,0,0,1-1.449.92,5.495,5.495,0,0,1-3.854-.018,4.082,4.082,0,0,1-1.406-.969,3.968,3.968,0,0,1-.846-1.394,4.863,4.863,0,0,1-.281-1.65v-.645a.956.956,0,0,1,.079-.451.361.361,0,0,1,.335-.134h2.289c.179,0,.295.037.348.11a.7.7,0,0,1,.079.39v.547a1.982,1.982,0,0,0,.128.768,1.369,1.369,0,0,0,.334.493,1.23,1.23,0,0,0,.451.268,1.553,1.553,0,0,0,.487.079,1.448,1.448,0,0,0,.548-.1,1.312,1.312,0,0,0,.444-.292,1.445,1.445,0,0,0,.3-.457,1.485,1.485,0,0,0,.115-.6,2.265,2.265,0,0,0-.127-.785,2.471,2.471,0,0,0-.39-.676,4.827,4.827,0,0,0-.676-.676q-.415-.347-.974-.81-.986-.779-1.7-1.37a7.547,7.547,0,0,1-1.175-1.193,4.149,4.149,0,0,1-.682-1.327,6.2,6.2,0,0,1-.219-1.772,4.123,4.123,0,0,1,1.553-3.373,4.387,4.387,0,0,1,1.437-.761,4.9,4.9,0,0,1,1.43-.237,4.825,4.825,0,0,1,1.772.317,4.1,4.1,0,0,1,1.4.9,4.006,4.006,0,0,1,.92,1.4,4.894,4.894,0,0,1,.328,1.832v.707a.52.52,0,0,1-.091.359.591.591,0,0,1-.4.091h-2.228c-.162,0-.266-.032-.31-.1a.661.661,0,0,1-.067-.353V97.49a2.033,2.033,0,0,0-.086-.6,1.434,1.434,0,0,0-.249-.487,1.189,1.189,0,0,0-.414-.329,1.31,1.31,0,0,0-.579-.122,1.4,1.4,0,0,0-.468.085,1.2,1.2,0,0,0-.427.268,1.409,1.409,0,0,0-.31.475,1.841,1.841,0,0,0-.122.707,2.119,2.119,0,0,0,.128.767,2.221,2.221,0,0,0,.365.615,3.855,3.855,0,0,0,.579.554q.341.267.755.584.876.657,1.637,1.272a8.672,8.672,0,0,1,1.327,1.322,5.781,5.781,0,0,1,.9,1.564,5.6,5.6,0,0,1,.329,2.015A4,4,0,0,1,4121.41,107.8Zm13.754,2.338H4132.8q-.354,0-.354-.463l.049-9.278.073-.926-.024.159-1.851,7.658a.865.865,0,0,1-.134.329.36.36,0,0,1-.28.086h-1.814a.338.338,0,0,1-.274-.086,1.06,1.06,0,0,1-.14-.329l-1.851-7.622.061.731.036,9.278c0,.309-.117.463-.353.463h-2.374c-.227,0-.341-.154-.341-.463V93.739c0-.3.117-.45.353-.45h3.142c.138,0,.227.036.268.109a1.3,1.3,0,0,1,.109.317l2.155,8.389.1.658.109-.645,2.18-8.4a1.276,1.276,0,0,1,.109-.317c.041-.073.13-.109.268-.109h3.142q.341,0,.341.45l.012,15.939C4135.517,109.987,4135.4,110.141,4135.164,110.141Zm11.409-3.958a3.981,3.981,0,0,1-1.394,3.105,4.442,4.442,0,0,1-1.486.834,5.523,5.523,0,0,1-1.784.286,5.268,5.268,0,0,1-1.777-.3,4.64,4.64,0,0,1-1.48-.846,3.98,3.98,0,0,1-1.01-1.327,4.021,4.021,0,0,1-.372-1.754V97.258a4.085,4.085,0,0,1,.372-1.771,3.957,3.957,0,0,1,1.01-1.334,4.468,4.468,0,0,1,1.48-.834,5.494,5.494,0,0,1,1.777-.286,5.55,5.55,0,0,1,1.784.286,4.516,4.516,0,0,1,1.486.828,3.982,3.982,0,0,1,1.017,1.327,4.081,4.081,0,0,1,.377,1.784Z" transform="translate(-4041.982 -61.61)" fill="#001526"/>
  <path id="Caminho_12" data-name="Caminho 12" d="M4042.012,116.7a1.111,1.111,0,0,1,.238-.751.85.85,0,0,1,.685-.277h5.407a.814.814,0,0,1,.673.277,1.16,1.16,0,0,1,.224.751v29.118h9.073c.51,0,.765.3.765.9V151.2q0,.977-.765.976h-15.377q-.922,0-.923-1Z" transform="translate(-4041.982 -61.61)" fill="#001526"/>
  <path id="Caminho_13" data-name="Caminho 13" d="M4061.513,124.273a8.86,8.86,0,0,1,.805-3.838,8.583,8.583,0,0,1,2.189-2.888,9.645,9.645,0,0,1,3.2-1.806,12.311,12.311,0,0,1,7.715,0,9.75,9.75,0,0,1,3.217,1.793,8.6,8.6,0,0,1,2.2,2.875,8.809,8.809,0,0,1,.817,3.864v19.333a8.625,8.625,0,0,1-3.02,6.726,9.638,9.638,0,0,1-3.217,1.806,11.992,11.992,0,0,1-3.864.62,11.447,11.447,0,0,1-3.851-.646,10.032,10.032,0,0,1-3.2-1.833,8.552,8.552,0,0,1-2.994-6.673Zm7.227,18.963a3.826,3.826,0,0,0,.185,1.2,3.047,3.047,0,0,0,.54,1,2.9,2.9,0,0,0,4.233.092,3.19,3.19,0,0,0,.739-2.136V124.669a3.979,3.979,0,0,0-.185-1.214,3.049,3.049,0,0,0-.554-1.028,2.728,2.728,0,0,0-.9-.713,2.627,2.627,0,0,0-1.186-.263,2.682,2.682,0,0,0-1.213.263,2.729,2.729,0,0,0-.9.713,3.25,3.25,0,0,0-.567,1.028,3.729,3.729,0,0,0-.2,1.214Z" transform="translate(-4041.982 -61.61)" fill="#001526"/>
  <path id="Caminho_14" data-name="Caminho 14" d="M4086.3,120.646a8.8,8.8,0,0,1,2.084-2.9,9.7,9.7,0,0,1,3.178-1.925,11.387,11.387,0,0,1,4.062-.7,10.4,10.4,0,0,1,4.259.8,8.724,8.724,0,0,1,2.981,2.11,8.519,8.519,0,0,1,1.74,2.967,10.472,10.472,0,0,1,.568,3.4v2.558a1.738,1.738,0,0,1-.172.884.73.73,0,0,1-.672.277h-5.064a.77.77,0,0,1-.66-.251,1.373,1.373,0,0,1-.185-.8v-2.453a3.693,3.693,0,0,0-.184-1.148,3.4,3.4,0,0,0-.527-1.015,2.638,2.638,0,0,0-.858-.725,2.429,2.429,0,0,0-1.173-.277,2.73,2.73,0,0,0-1.187.25,2.8,2.8,0,0,0-.91.686,3.226,3.226,0,0,0-.594.989,3.3,3.3,0,0,0-.211,1.187V143.21a3.86,3.86,0,0,0,.185,1.2,3.064,3.064,0,0,0,.554,1.015,2.672,2.672,0,0,0,.91.713,3.114,3.114,0,0,0,2.505,0,2.557,2.557,0,0,0,.9-.713,3.19,3.19,0,0,0,.541-1.015,3.853,3.853,0,0,0,.185-1.2v-3.139a1.3,1.3,0,0,1,.184-.817.806.806,0,0,1,.633-.211h5.064a1.035,1.035,0,0,1,.686.185,1.062,1.062,0,0,1,.211.791v3.587a9.252,9.252,0,0,1-.765,3.837,8.636,8.636,0,0,1-2.07,2.889,8.876,8.876,0,0,1-3.086,1.806,11.439,11.439,0,0,1-3.785.62,11.982,11.982,0,0,1-3.864-.62,9.643,9.643,0,0,1-3.218-1.806,8.593,8.593,0,0,1-2.189-2.889,8.858,8.858,0,0,1-.8-3.837V124.273A8.76,8.76,0,0,1,4086.3,120.646Z" transform="translate(-4041.982 -61.61)" fill="#001526"/>
  <path id="Caminho_15" data-name="Caminho 15" d="M4128.868,151.2q.264.977-.5.976h-5.46a1.317,1.317,0,0,1-.712-.2.847.847,0,0,1-.369-.672l-.686-4.4h-5.908l-.659,4.4a.922.922,0,0,1-.4.672,1.267,1.267,0,0,1-.686.2h-5.459q-.792,0-.528-1l7.306-34.577c.159-.616.5-.923,1.029-.923h4.694a1.044,1.044,0,0,1,1.056.923Zm-12.766-9.891h4.168l-1.794-11.71-.29-3.086-.29,3.086Z" transform="translate(-4041.982 -61.61)" fill="#001526"/>
  <path id="Caminho_16" data-name="Caminho 16" d="M4132.228,116.7a1.117,1.117,0,0,1,.237-.751.854.854,0,0,1,.686-.277h5.407a.814.814,0,0,1,.673.277,1.161,1.161,0,0,1,.223.751v29.118h9.074c.509,0,.764.3.764.9V151.2q0,.977-.764.976h-15.377q-.924,0-.923-1Z" transform="translate(-4041.982 -61.61)" fill="#001526"/>
  <path id="Caminho_18" data-name="Caminho 18" d="M4173.913,152.439a.645.645,0,0,1-.077.332.3.3,0,0,1-.279.131h-2.506a.258.258,0,0,1-.22-.137.582.582,0,0,1-.089-.326V140.325a3.684,3.684,0,0,1,.356-1.6,4.263,4.263,0,0,1,.968-1.312,4.57,4.57,0,0,1,1.414-.885,4.507,4.507,0,0,1,1.692-.321,4.553,4.553,0,0,1,1.7.321,4.476,4.476,0,0,1,1.413.885,4.384,4.384,0,0,1,.968,1.312,3.622,3.622,0,0,1,.363,1.6v12.1a.618.618,0,0,1-.09.327.311.311,0,0,1-.29.148h-2.411a.322.322,0,0,1-.279-.142.557.557,0,0,1-.1-.333V140.5a1.739,1.739,0,0,0-.083-.54,1.378,1.378,0,0,0-.244-.451,1.2,1.2,0,0,0-.4-.315,1.273,1.273,0,0,0-1.075,0,1.265,1.265,0,0,0-.4.315,1.3,1.3,0,0,0-.25.451,1.739,1.739,0,0,0-.083.54Z" transform="translate(-4041.982 -61.61)" fill="#8368e0"/>
  <path id="Caminho_19" data-name="Caminho 19" d="M4180.557,140.471a4.026,4.026,0,0,1,.363-1.736,3.926,3.926,0,0,1,.979-1.307,4.267,4.267,0,0,1,1.432-.817,5.261,5.261,0,0,1,1.722-.281,5.317,5.317,0,0,1,1.729.281,4.378,4.378,0,0,1,1.444.811,3.9,3.9,0,0,1,.991,1.3,3.993,3.993,0,0,1,.369,1.748v8.747a3.92,3.92,0,0,1-1.36,3.044,4.321,4.321,0,0,1-1.444.817,5.316,5.316,0,0,1-1.729.28,5.065,5.065,0,0,1-1.722-.292,4.435,4.435,0,0,1-1.432-.829,3.9,3.9,0,0,1-1.342-3.02Zm3.215,8.58a1.7,1.7,0,0,0,.085.543,1.365,1.365,0,0,0,.248.454,1.224,1.224,0,0,0,.4.316,1.2,1.2,0,0,0,.55.119,1.346,1.346,0,0,0,.556-.107,1.231,1.231,0,0,0,.411-.292,1.292,1.292,0,0,0,.26-.43,1.5,1.5,0,0,0,.091-.531V140.65a1.655,1.655,0,0,0-.091-.549,1.509,1.509,0,0,0-.254-.465,1.164,1.164,0,0,0-.4-.322,1.2,1.2,0,0,0-.543-.12,1.234,1.234,0,0,0-.556.12,1.164,1.164,0,0,0-.4.322,1.51,1.51,0,0,0-.254.465,1.655,1.655,0,0,0-.091.549Z" transform="translate(-4041.982 -61.61)" fill="#8368e0"/>
  <path id="Caminho_20" data-name="Caminho 20" d="M4190.593,136.736a.529.529,0,0,1,.1-.342.351.351,0,0,1,.291-.126h2.375a.35.35,0,0,1,.3.126.558.558,0,0,1,.095.342v15.709q0,.457-.392.457h-2.375q-.393,0-.392-.457Z" transform="translate(-4041.982 -61.61)" fill="#8368e0"/>
  <path id="Caminho_21" data-name="Caminho 21" d="M4194.771,148.4a.906.906,0,0,1,.078-.439c.051-.087.16-.13.326-.13h2.16a.386.386,0,0,1,.326.107.683.683,0,0,1,.077.379v.534a1.944,1.944,0,0,0,.125.748,1.393,1.393,0,0,0,.32.481,1.156,1.156,0,0,0,.439.261,1.563,1.563,0,0,0,.469.077,1.37,1.37,0,0,0,.528-.1,1.3,1.3,0,0,0,.427-.285,1.319,1.319,0,0,0,.291-.445,1.52,1.52,0,0,0,.107-.581,2.321,2.321,0,0,0-.119-.766,2.263,2.263,0,0,0-.374-.658,4.992,4.992,0,0,0-.646-.659q-.393-.337-.938-.789-.926-.759-1.608-1.335a7.135,7.135,0,0,1-1.121-1.163,4.145,4.145,0,0,1-.653-1.294,6.034,6.034,0,0,1-.214-1.726,4.609,4.609,0,0,1,.2-1.389,4.026,4.026,0,0,1,.528-1.091,3.687,3.687,0,0,1,.76-.807,4.669,4.669,0,0,1,.9-.552,4.353,4.353,0,0,1,.943-.32,4.237,4.237,0,0,1,.89-.1,4.544,4.544,0,0,1,1.7.308,3.88,3.88,0,0,1,1.329.872,3.971,3.971,0,0,1,.872,1.365,4.843,4.843,0,0,1,.315,1.786v.676a.537.537,0,0,1-.089.351.5.5,0,0,1-.374.1h-2.124c-.15,0-.245-.033-.285-.1a.739.739,0,0,1-.059-.351V140.7a2.013,2.013,0,0,0-.083-.582,1.433,1.433,0,0,0-.244-.474,1.163,1.163,0,0,0-.4-.321,1.234,1.234,0,0,0-.558-.118,1.281,1.281,0,0,0-.451.083,1.148,1.148,0,0,0-.409.261,1.351,1.351,0,0,0-.3.463,1.793,1.793,0,0,0-.118.688,2.061,2.061,0,0,0,.124.748,2.169,2.169,0,0,0,.356.6,3.767,3.767,0,0,0,.558.54c.217.174.457.364.718.569q.83.64,1.56,1.24a8.3,8.3,0,0,1,1.27,1.288,5.6,5.6,0,0,1,.849,1.525,5.7,5.7,0,0,1,.308,1.964,4.037,4.037,0,0,1-.314,1.578,3.985,3.985,0,0,1-.89,1.311,4.275,4.275,0,0,1-1.383.9,5.1,5.1,0,0,1-3.667-.018,3.832,3.832,0,0,1-2.154-2.3,4.839,4.839,0,0,1-.267-1.608Z" transform="translate(-4041.982 -61.61)" fill="#8368e0"/>
  <path id="Caminho_22" data-name="Caminho 22" d="M4161.8,136.766a.507.507,0,0,1,.108-.342.373.373,0,0,1,.3-.125h7.163c.223,0,.335.147.335.443v2.036c0,.288-.112.431-.335.431h-4.384v3.846h3.5a.41.41,0,0,1,.27.1.4.4,0,0,1,.114.324v2.048a.357.357,0,0,1-.384.408h-3.5v4.06h4.444a.332.332,0,0,1,.245.1.414.414,0,0,1,.1.306v2.06a.428.428,0,0,1-.1.317.332.332,0,0,1-.245.1h-7.224c-.271,0-.407-.151-.407-.455Zm5.055-1.722a.913.913,0,0,1-.281.335.636.636,0,0,1-.318.072h-1.437a.313.313,0,0,1-.252-.143.446.446,0,0,1-.012-.42l.863-1.964a.949.949,0,0,1,.192-.33.443.443,0,0,1,.311-.089h1.8a.3.3,0,0,1,.3.185.417.417,0,0,1-.042.39Z" transform="translate(-4041.982 -61.61)" fill="#8368e0"/>
</svg>
