<svg xmlns="http://www.w3.org/2000/svg" width="23.225" height="23.225" viewBox="0 0 23.225 23.225">
  <path id="Caminho_24" data-name="Caminho 24" d="M4867.672,676.487a11.613,11.613,0,1,1,11.613,11.612A11.7,11.7,0,0,1,4867.672,676.487Zm22.476,0a10.864,10.864,0,1,0-10.863,10.863A10.871,10.871,0,0,0,4890.148,676.487Zm-17.419,4.758h.674a5.4,5.4,0,0,0,3.446-1.2,2.768,2.768,0,0,1-2.584-1.911,1.034,1.034,0,0,0,.487.113,2.172,2.172,0,0,0,.749-.188,2.744,2.744,0,0,1-2.21-2.772,1.978,1.978,0,0,0,1.2.338,2.93,2.93,0,0,1-1.161-2.285,3.024,3.024,0,0,1,.374-1.461,7.66,7.66,0,0,0,5.806,2.959,3.712,3.712,0,0,1-.075-.674,2.767,2.767,0,0,1,2.773-2.773,2.662,2.662,0,0,1,1.91.749l1.948-.9a.689.689,0,0,1,.074.262,1.69,1.69,0,0,1-1.086,1.273v.3h1.424v.263l-1.5,1.31A7.9,7.9,0,0,1,4877,682.48,8.358,8.358,0,0,1,4872.729,681.245Z" transform="translate(-4867.672 -664.874)" fill="#8368e0"/>
</svg>
