<svg xmlns="http://www.w3.org/2000/svg" width="17.809" height="17.809" viewBox="0 0 17.809 17.809">
  <g id="Grupo_100" data-name="Grupo 100" transform="translate(-2479.584 -338.929)">
    <circle id="Elipse_13" data-name="Elipse 13" cx="8.905" cy="8.905" r="8.905" transform="translate(2479.584 338.929)" fill="#8368e0" style="mix-blend-mode: multiply;isolation: isolate"/>
    <path id="Caminho_142" data-name="Caminho 142" d="M2492.354,345.5l.79-.221a.641.641,0,0,1-.068.135,3.569,3.569,0,0,1-.474.5.723.723,0,0,0-.286.642,4.755,4.755,0,0,1-1.574,3.415,4.825,4.825,0,0,1-5.424.753,2.525,2.525,0,0,1-.422-.25,3.5,3.5,0,0,0,2.408-.717,1.769,1.769,0,0,1-1.543-1.195h.661a1.873,1.873,0,0,1-1.25-1.713l.694.2c-.752-.9-.873-1.55-.434-2.283a5.041,5.041,0,0,0,2.835,1.7c.2.043.408.05.622.075,0-.1,0-.162,0-.225a1.635,1.635,0,0,1,1.023-1.714,1.6,1.6,0,0,1,1.778.24.421.421,0,0,0,.472.069c.24-.094.479-.191.756-.3A1.99,1.99,0,0,1,2492.354,345.5Z" fill="#fff"/>
  </g>
</svg>
