<svg xmlns="http://www.w3.org/2000/svg" width="17.809" height="17.809" viewBox="0 0 17.809 17.809">
  <g id="Grupo_103" data-name="Grupo 103" transform="translate(-2504.202 -338.929)">
    <circle id="Elipse_14" data-name="Elipse 14" cx="8.905" cy="8.905" r="8.905" transform="translate(2504.202 338.929)" fill="#8368e0" style="mix-blend-mode: multiply;isolation: isolate"/>
    <g id="Grupo_102" data-name="Grupo 102">
      <g id="Grupo_101" data-name="Grupo 101">
        <path id="Caminho_143" data-name="Caminho 143" d="M2518.051,351.231h-1.816c0-.1-.012-.195-.012-.286,0-.9,0-1.79,0-2.686a2.124,2.124,0,0,0-.057-.489.827.827,0,0,0-.956-.719.98.98,0,0,0-.878.916c-.019.565-.008,1.13-.009,1.695v1.558h-1.845v-5.5h1.832v.634l.092.058a.442.442,0,0,1,.04-.123,2.071,2.071,0,0,1,3.026-.113,2.4,2.4,0,0,1,.6,1.626c.021,1.1.008,2.207.007,3.31A.75.75,0,0,1,2518.051,351.231Z" fill="#fff"/>
        <path id="Caminho_144" data-name="Caminho 144" d="M2509.619,345.717h1.835v5.509h-1.835Z" fill="#fff"/>
        <path id="Caminho_145" data-name="Caminho 145" d="M2510.562,343.057a.932.932,0,0,1,1.018.965,1.039,1.039,0,1,1-1.018-.965Z" fill="#fff"/>
      </g>
    </g>
  </g>
</svg>
