<svg xmlns="http://www.w3.org/2000/svg" width="70.454" height="35.282" viewBox="0 0 70.454 35.282">
  <g id="Grupo_76" data-name="Grupo 76" transform="translate(-2180.697 -1069.767)">
    <g id="Grupo_75" data-name="Grupo 75">
      <g id="Grupo_74" data-name="Grupo 74">
        <path id="Caminho_99" data-name="Caminho 99" d="M2233.453,1071.648a1.166,1.166,0,0,1,.54.123,1.247,1.247,0,0,1,.406.334,1.5,1.5,0,0,1,.255.487,2.029,2.029,0,0,1,0,1.175,1.56,1.56,0,0,1-.253.492,1.222,1.222,0,0,1-.4.337,1.147,1.147,0,0,1-.543.126h-2.721a1.145,1.145,0,0,1-.541-.126,1.248,1.248,0,0,1-.406-.337,1.527,1.527,0,0,1-.254-.492,1.965,1.965,0,0,1-.088-.588,1.9,1.9,0,0,1,.091-.587,1.562,1.562,0,0,1,.258-.487,1.269,1.269,0,0,1,.405-.334,1.145,1.145,0,0,1,.535-.123Zm.259,1.212" fill="#8368e0"/>
      </g>
    </g>
    <path id="Caminho_100" data-name="Caminho 100" d="M2201.188,1103.492a1.088,1.088,0,0,1-.131.562.5.5,0,0,1-.472.221h-4.239a.438.438,0,0,1-.372-.231.991.991,0,0,1-.151-.552V1083a6.225,6.225,0,0,1,.6-2.712,7.207,7.207,0,0,1,1.638-2.22,7.72,7.72,0,0,1,2.39-1.5,7.784,7.784,0,0,1,8.127,1.5,7.425,7.425,0,0,1,1.638,2.22,6.152,6.152,0,0,1,.613,2.712v20.474a1.055,1.055,0,0,1-.151.552.528.528,0,0,1-.492.251h-4.079a.546.546,0,0,1-.472-.241.947.947,0,0,1-.171-.562V1083.3a2.953,2.953,0,0,0-.14-.914,2.34,2.34,0,0,0-.412-.764,2.042,2.042,0,0,0-.673-.532,2.158,2.158,0,0,0-1.819,0,2.184,2.184,0,0,0-.673.532,2.258,2.258,0,0,0-.422.764,2.96,2.96,0,0,0-.14.914Z" fill="#8368e0"/>
    <path id="Caminho_101" data-name="Caminho 101" d="M2212.428,1083.245a6.817,6.817,0,0,1,.613-2.938,6.635,6.635,0,0,1,1.657-2.21,7.205,7.205,0,0,1,2.423-1.383,8.9,8.9,0,0,1,2.914-.475,9,9,0,0,1,2.924.475,7.4,7.4,0,0,1,2.443,1.373,6.6,6.6,0,0,1,1.677,2.2,6.761,6.761,0,0,1,.624,2.958v14.8a6.625,6.625,0,0,1-2.3,5.148,7.317,7.317,0,0,1-2.443,1.383,9,9,0,0,1-2.924.474,8.56,8.56,0,0,1-2.914-.495,7.478,7.478,0,0,1-2.423-1.4,6.593,6.593,0,0,1-2.27-5.107Zm5.439,14.516a2.922,2.922,0,0,0,.143.918,2.346,2.346,0,0,0,.419.768,2.1,2.1,0,0,0,.675.535,2.044,2.044,0,0,0,.931.2,2.3,2.3,0,0,0,.94-.182,2.069,2.069,0,0,0,.7-.495,2.195,2.195,0,0,0,.439-.727,2.571,2.571,0,0,0,.154-.9v-14.334a2.838,2.838,0,0,0-.154-.929,2.592,2.592,0,0,0-.429-.787,2,2,0,0,0-.685-.545,2.049,2.049,0,0,0-.92-.2,2.094,2.094,0,0,0-.941.2,2,2,0,0,0-.685.545,2.6,2.6,0,0,0-.429.787,2.807,2.807,0,0,0-.154.929Z" fill="#8368e0"/>
    <path id="Caminho_102" data-name="Caminho 102" d="M2229.406,1076.926a.9.9,0,0,1,.171-.579.592.592,0,0,1,.492-.214h4.018a.588.588,0,0,1,.5.214.941.941,0,0,1,.161.579V1103.5q0,.772-.663.772h-4.018q-.663,0-.663-.772Z" fill="#8368e0"/>
    <path id="Caminho_103" data-name="Caminho 103" d="M2236.475,1096.658a1.547,1.547,0,0,1,.131-.743.592.592,0,0,1,.552-.221h3.654a.653.653,0,0,1,.552.181,1.152,1.152,0,0,1,.13.642v.9a3.288,3.288,0,0,0,.211,1.264,2.344,2.344,0,0,0,.542.814,1.933,1.933,0,0,0,.743.441,2.62,2.62,0,0,0,.793.131,2.3,2.3,0,0,0,.893-.171,2.2,2.2,0,0,0,.723-.482,2.252,2.252,0,0,0,.492-.753,2.583,2.583,0,0,0,.181-.983,3.9,3.9,0,0,0-.2-1.3,3.841,3.841,0,0,0-.632-1.114,8.5,8.5,0,0,0-1.095-1.115q-.662-.571-1.586-1.335-1.566-1.284-2.72-2.258a12.012,12.012,0,0,1-1.9-1.968,7.017,7.017,0,0,1-1.1-2.188,10.2,10.2,0,0,1-.362-2.921,7.746,7.746,0,0,1,.332-2.349,6.747,6.747,0,0,1,.893-1.847,6.274,6.274,0,0,1,1.285-1.365,7.969,7.969,0,0,1,1.516-.933,7.483,7.483,0,0,1,3.1-.713,7.662,7.662,0,0,1,2.871.522,6.555,6.555,0,0,1,2.249,1.475,6.744,6.744,0,0,1,1.475,2.309,8.2,8.2,0,0,1,.532,3.022v1.144a.9.9,0,0,1-.15.592.853.853,0,0,1-.633.171h-3.593c-.255,0-.415-.057-.482-.171a1.249,1.249,0,0,1-.1-.592v-1.124a3.386,3.386,0,0,0-.141-.984,2.4,2.4,0,0,0-.412-.8,1.966,1.966,0,0,0-.672-.542,2.083,2.083,0,0,0-.944-.2,2.191,2.191,0,0,0-.763.141,1.95,1.95,0,0,0-.692.441,2.3,2.3,0,0,0-.512.783,3.023,3.023,0,0,0-.2,1.165,3.463,3.463,0,0,0,.211,1.264,3.626,3.626,0,0,0,.6,1.014,6.441,6.441,0,0,0,.944.914q.552.441,1.214.963,1.406,1.084,2.64,2.1a14.059,14.059,0,0,1,2.148,2.178,9.469,9.469,0,0,1,1.436,2.58,9.592,9.592,0,0,1,.522,3.323,6.827,6.827,0,0,1-.532,2.67,6.722,6.722,0,0,1-1.506,2.218,7.235,7.235,0,0,1-2.339,1.516,8.625,8.625,0,0,1-6.2-.03,6.482,6.482,0,0,1-3.644-3.9,8.2,8.2,0,0,1-.452-2.72Z" fill="#8368e0"/>
    <path id="Caminho_104" data-name="Caminho 104" d="M2180.7,1076.976a.856.856,0,0,1,.182-.577.631.631,0,0,1,.507-.213H2193.5q.567,0,.568.75v3.445q0,.729-.568.73h-7.417v6.505h5.918a.618.618,0,0,1,.648.709v3.465a.6.6,0,0,1-.648.689h-5.918v6.87h7.519a.566.566,0,0,1,.415.173.7.7,0,0,1,.172.516v3.486a.733.733,0,0,1-.172.537.565.565,0,0,1-.415.172h-12.221q-.688,0-.689-.77Zm8.552-2.912a1.583,1.583,0,0,1-.477.567,1.068,1.068,0,0,1-.537.122H2185.8a.524.524,0,0,1-.426-.244.744.744,0,0,1-.02-.709l1.459-3.323a1.612,1.612,0,0,1,.324-.558.757.757,0,0,1,.527-.152h3.04a.507.507,0,0,1,.516.314.707.707,0,0,1-.071.659Z" fill="#8368e0"/>
  </g>
</svg>
