<svg xmlns="http://www.w3.org/2000/svg" width="161.464" height="91.749" viewBox="0 0 161.464 91.749">
  <g id="Grupo_126" data-name="Grupo 126">
    <g id="Grupo_123" data-name="Grupo 123" transform="translate(0.03)">
      <path id="Caminho_156" data-name="Caminho 156" d="M1553.488,65.271c0,.47-.18.7-.538.7h-3.6q-.537,0-.537-.7l.074-14.124.111-1.409-.037.241-2.818,11.659a1.3,1.3,0,0,1-.2.5.546.546,0,0,1-.426.13h-2.762a.515.515,0,0,1-.417-.13,1.647,1.647,0,0,1-.213-.5l-2.817-11.6.093,1.112.055,14.124q0,.7-.537.7H1535.3q-.519,0-.519-.7V41.008q0-.686.538-.686h4.782c.21,0,.346.056.408.167a1.958,1.958,0,0,1,.166.482l3.281,12.771.148,1,.167-.982,3.318-12.79a1.914,1.914,0,0,1,.167-.482c.062-.111.2-.167.408-.167h4.782q.519,0,.519.686Z" transform="translate(-1534.785 -39.933)" fill="#a2f37c"/>
      <path id="Caminho_157" data-name="Caminho 157" d="M1570.392,65.289q.185.687-.352.686H1566.2a.932.932,0,0,1-.5-.138.6.6,0,0,1-.259-.473l-.482-3.1h-4.152l-.463,3.1a.65.65,0,0,1-.278.473.9.9,0,0,1-.482.138h-3.837q-.556,0-.371-.7l5.134-24.3q.168-.648.723-.649h3.3a.735.735,0,0,1,.741.649Zm-8.971-6.95h2.928l-1.26-8.23-.2-2.169-.2,2.169Z" transform="translate(-1534.785 -39.933)" fill="#a2f37c"/>
      <path id="Caminho_158" data-name="Caminho 158" d="M1572.282,41.045a.787.787,0,0,1,.167-.528.6.6,0,0,1,.482-.195h6.691a7.106,7.106,0,0,1,2.725.519,6.5,6.5,0,0,1,3.6,3.531,6.561,6.561,0,0,1,.519,2.6v5.931a6.637,6.637,0,0,1-1.956,4.745,6.792,6.792,0,0,1-2.168,1.436,6.9,6.9,0,0,1-2.716.529h-2.261v5.653q0,.7-.63.7h-3.8q-.649,0-.649-.7Zm6.951,14.106a2.028,2.028,0,0,0,1.566-.631,2.223,2.223,0,0,0,.584-1.575V47.069a2.255,2.255,0,0,0-.593-1.622,2.08,2.08,0,0,0-1.575-.62h-1.854V55.151Z" transform="translate(-1534.785 -39.933)" fill="#a2f37c"/>
      <path id="Caminho_159" data-name="Caminho 159" d="M1600.771,65.289q.186.687-.352.686h-3.837a.928.928,0,0,1-.5-.138.6.6,0,0,1-.26-.473l-.482-3.1h-4.152l-.463,3.1a.65.65,0,0,1-.278.473.9.9,0,0,1-.482.138h-3.837q-.555,0-.37-.7l5.134-24.3q.167-.648.723-.649h3.3a.734.734,0,0,1,.741.649Zm-8.971-6.95h2.929l-1.261-8.23-.2-2.169-.2,2.169Z" transform="translate(-1534.785 -39.933)" fill="#a2f37c"/>
      <path id="Caminho_160" data-name="Caminho 160" d="M1611.466,41.045a.786.786,0,0,1,.167-.528.6.6,0,0,1,.482-.195h6.524a8.607,8.607,0,0,1,2.744.427,6.357,6.357,0,0,1,2.224,1.26,5.841,5.841,0,0,1,1.483,2.057,7,7,0,0,1,.537,2.836V59.4a7,7,0,0,1-.537,2.836,5.89,5.89,0,0,1-1.474,2.058,6.267,6.267,0,0,1-2.206,1.26,8.54,8.54,0,0,1-2.733.426h-6.562q-.649,0-.649-.7Zm7.025,20.463a2.2,2.2,0,0,0,.844-.194,1.943,1.943,0,0,0,.648-.482,2.246,2.246,0,0,0,.417-.705,2.5,2.5,0,0,0,.149-.88V47.106a2.011,2.011,0,0,0-2.076-2.279h-1.928V61.508Z" transform="translate(-1534.785 -39.933)" fill="#a2f37c"/>
      <path id="Caminho_161" data-name="Caminho 161" d="M1627.889,46.365a6.232,6.232,0,0,1,.565-2.7,6.049,6.049,0,0,1,1.538-2.03,6.782,6.782,0,0,1,2.252-1.269,8.646,8.646,0,0,1,5.422,0,6.83,6.83,0,0,1,2.261,1.26,6.04,6.04,0,0,1,1.548,2.02,6.2,6.2,0,0,1,.575,2.716V59.951a6.065,6.065,0,0,1-2.123,4.727,6.745,6.745,0,0,1-2.261,1.269,8.4,8.4,0,0,1-2.715.436,8.025,8.025,0,0,1-2.707-.454,7.061,7.061,0,0,1-2.252-1.288,6.009,6.009,0,0,1-2.1-4.69Zm5.078,13.327a2.689,2.689,0,0,0,.13.843,2.125,2.125,0,0,0,.38.7,1.869,1.869,0,0,0,.621.492,1.888,1.888,0,0,0,.853.185,1.86,1.86,0,0,0,1.5-.612,2.239,2.239,0,0,0,.519-1.5V46.643a2.81,2.81,0,0,0-.13-.853,2.158,2.158,0,0,0-.389-.723,1.924,1.924,0,0,0-.63-.5,1.852,1.852,0,0,0-.834-.185,1.888,1.888,0,0,0-.853.185,1.922,1.922,0,0,0-.63.5,2.314,2.314,0,0,0-.4.723,2.645,2.645,0,0,0-.139.853Z" transform="translate(-1534.785 -39.933)" fill="#a2f37c"/>
    </g>
    <g id="Grupo_124" data-name="Grupo 124" transform="translate(0 28.215)">
      <path id="Caminho_162" data-name="Caminho 162" d="M1562.806,74.571h-1.218v4.566h1.23a1.322,1.322,0,0,0,1.047-.414,1.5,1.5,0,0,0,.365-1.035V76.007a1.414,1.414,0,0,0-.389-1.047A1.4,1.4,0,0,0,1562.806,74.571Z" transform="translate(-1534.755 -68.148)" fill="#a2f37c"/>
      <path id="Caminho_163" data-name="Caminho 163" d="M1584.979,76.616l-.134,1.425-.828,5.406h1.924l-.828-5.406Z" transform="translate(-1534.755 -68.148)" fill="#a2f37c"/>
      <path id="Caminho_164" data-name="Caminho 164" d="M1552.821,74.729a1.266,1.266,0,0,0-.414-.329,1.21,1.21,0,0,0-.548-.122,1.241,1.241,0,0,0-.56.122,1.265,1.265,0,0,0-.414.329,1.492,1.492,0,0,0-.262.475,1.716,1.716,0,0,0-.091.56v8.572a1.778,1.778,0,0,0,.085.554,1.393,1.393,0,0,0,.25.462,1.2,1.2,0,0,0,.408.323,1.237,1.237,0,0,0,.56.122,1.221,1.221,0,0,0,.986-.4,1.473,1.473,0,0,0,.341-.986V75.764a1.826,1.826,0,0,0-.085-.56A1.407,1.407,0,0,0,1552.821,74.729Z" transform="translate(-1534.755 -68.148)" fill="#a2f37c"/>
      <path id="Caminho_165" data-name="Caminho 165" d="M1642.151,68.281a.392.392,0,0,0-.324-.133H1535.2a.41.41,0,0,0-.33.133.539.539,0,0,0-.114.362V91.368c0,.322.148.482.444.482h106.628c.288,0,.432-.16.432-.482V68.643A.56.56,0,0,0,1642.151,68.281Zm-96.623,16.1a4.331,4.331,0,0,1-.366,1.814,4.009,4.009,0,0,1-1,1.364,4.544,4.544,0,0,1-1.467.864,5.093,5.093,0,0,1-1.76.3,5.146,5.146,0,0,1-1.857-.347,3.752,3.752,0,0,1-1.54-1.089,1.15,1.15,0,0,1-.085-.14.776.776,0,0,1-.073-.195.755.755,0,0,1-.019-.213.315.315,0,0,1,.067-.183l1.157-1.412a.363.363,0,0,1,.335-.195.548.548,0,0,1,.371.195,2.39,2.39,0,0,0,.664.462,1.86,1.86,0,0,0,.81.183,1.525,1.525,0,0,0,.633-.122,1.194,1.194,0,0,0,.444-.341,1.447,1.447,0,0,0,.262-.511,2.2,2.2,0,0,0,.085-.621V72.074a.435.435,0,0,1,.128-.371.417.417,0,0,1,.238-.091h2.52c.3,0,.451.174.451.523Zm10.97.121a3.978,3.978,0,0,1-1.394,3.105,4.433,4.433,0,0,1-1.485.834,5.53,5.53,0,0,1-1.784.286,5.271,5.271,0,0,1-1.778-.3,4.632,4.632,0,0,1-1.479-.846,3.942,3.942,0,0,1-1.382-3.081V75.581a4.085,4.085,0,0,1,.371-1.771,3.969,3.969,0,0,1,1.011-1.334,4.46,4.46,0,0,1,1.479-.834,5.471,5.471,0,0,1,1.778-.286,5.53,5.53,0,0,1,1.784.286,4.507,4.507,0,0,1,1.485.828,3.98,3.98,0,0,1,1.017,1.327,4.065,4.065,0,0,1,.377,1.784Zm11.215,3.805a.251.251,0,0,1-.244.153h-2.618a.407.407,0,0,1-.267-.073.578.578,0,0,1-.134-.317l-1.79-6.173h-1.072v6.112q0,.452-.414.451h-2.5q-.426,0-.426-.451V72.087a.518.518,0,0,1,.109-.348.4.4,0,0,1,.317-.127h4.4a4.573,4.573,0,0,1,1.79.347,4.33,4.33,0,0,1,2.362,2.338,4.3,4.3,0,0,1,.341,1.71v1.4a4.831,4.831,0,0,1-.146,1.217,4.268,4.268,0,0,1-.408,1.023,4.092,4.092,0,0,1-.621.834,4.409,4.409,0,0,1-.773.639l2.118,6.868A.436.436,0,0,1,1567.713,88.311Zm11.092-.31a.409.409,0,0,1-.462.463h-2.265a.682.682,0,0,1-.335-.092.522.522,0,0,1-.237-.3l-2.935-8.584-.316-1.169.073,1.217.109,8.463q.024.463-.426.463h-2.253q-.426,0-.426-.463V72.087a.519.519,0,0,1,.11-.348.393.393,0,0,1,.316-.127h2.29a.628.628,0,0,1,.3.109.59.59,0,0,1,.219.305l3.02,8.986.3,1.4-.061-1.278-.134-9.047a.548.548,0,0,1,.1-.335.388.388,0,0,1,.335-.14h2.252a.466.466,0,0,1,.28.1.424.424,0,0,1,.134.365Zm10.874.463h-2.521a.605.605,0,0,1-.328-.092.39.39,0,0,1-.171-.31l-.316-2.033h-2.728l-.3,2.033a.428.428,0,0,1-.183.31.587.587,0,0,1-.316.092h-2.521q-.366,0-.244-.463l3.373-15.963c.073-.284.232-.426.475-.426h2.167a.483.483,0,0,1,.488.426l3.36,15.975Q1590.031,88.465,1589.679,88.464Zm9.351-.451q0,.452-.353.451h-7.1q-.426,0-.426-.463V72.087a.519.519,0,0,1,.11-.348.393.393,0,0,1,.316-.127h2.5a.376.376,0,0,1,.311.127.539.539,0,0,1,.1.348V85.529h4.189q.352,0,.353.414Zm4.737-.012q0,.463-.414.463h-2.5c-.285,0-.426-.154-.426-.463V72.087a.518.518,0,0,1,.109-.348.4.4,0,0,1,.317-.127h2.5a.375.375,0,0,1,.31.127.538.538,0,0,1,.1.348Zm10.417-1.875a4.151,4.151,0,0,1-.938,1.345,4.481,4.481,0,0,1-1.449.92,5.488,5.488,0,0,1-3.854-.019,4.068,4.068,0,0,1-1.406-.968,3.966,3.966,0,0,1-.846-1.394,4.864,4.864,0,0,1-.281-1.65v-.645a.938.938,0,0,1,.08-.451.358.358,0,0,1,.335-.134h2.289a.417.417,0,0,1,.347.11.707.707,0,0,1,.079.39v.547a1.982,1.982,0,0,0,.128.768,1.362,1.362,0,0,0,.335.493,1.232,1.232,0,0,0,.45.268,1.56,1.56,0,0,0,.487.079,1.445,1.445,0,0,0,.548-.1,1.328,1.328,0,0,0,.445-.292,1.461,1.461,0,0,0,.3-.457,1.489,1.489,0,0,0,.116-.6,2.262,2.262,0,0,0-.128-.785,2.415,2.415,0,0,0-.39-.676,4.829,4.829,0,0,0-.676-.676q-.414-.346-.974-.81-.986-.778-1.7-1.37a7.46,7.46,0,0,1-1.175-1.193,4.112,4.112,0,0,1-.682-1.327,6.193,6.193,0,0,1-.22-1.772,4.124,4.124,0,0,1,1.553-3.373,4.389,4.389,0,0,1,1.437-.761,4.9,4.9,0,0,1,1.431-.237,4.824,4.824,0,0,1,1.771.317,4.1,4.1,0,0,1,1.4.9,4.01,4.01,0,0,1,.92,1.4,4.9,4.9,0,0,1,.328,1.832v.707a.518.518,0,0,1-.091.359.59.59,0,0,1-.4.091h-2.228c-.162,0-.266-.032-.31-.1a.662.662,0,0,1-.067-.353v-.694a2.07,2.07,0,0,0-.085-.6,1.449,1.449,0,0,0-.25-.487,1.188,1.188,0,0,0-.414-.329,1.3,1.3,0,0,0-.578-.122,1.4,1.4,0,0,0-.469.085,1.19,1.19,0,0,0-.426.268,1.4,1.4,0,0,0-.311.475,1.841,1.841,0,0,0-.122.707,2.119,2.119,0,0,0,.128.767,2.226,2.226,0,0,0,.365.615,3.905,3.905,0,0,0,.579.554q.341.267.755.584.876.657,1.638,1.272a8.737,8.737,0,0,1,1.327,1.322,5.825,5.825,0,0,1,.895,1.564,5.624,5.624,0,0,1,.328,2.015A4.009,4.009,0,0,1,1614.184,86.126Zm13.753,2.338h-2.362c-.236,0-.353-.154-.353-.463l.048-9.278.073-.926-.024.159-1.851,7.658a.86.86,0,0,1-.134.329.36.36,0,0,1-.28.086h-1.814a.338.338,0,0,1-.274-.086,1.087,1.087,0,0,1-.14-.329l-1.851-7.622.061.731.037,9.278q0,.463-.354.463h-2.374q-.34,0-.341-.463V72.062q0-.45.353-.45h3.142c.138,0,.227.036.268.109a1.286,1.286,0,0,1,.109.317l2.155,8.389.1.658.109-.646,2.18-8.4a1.291,1.291,0,0,1,.109-.317c.041-.073.13-.109.268-.109h3.142q.34,0,.341.45L1628.29,88Q1628.29,88.464,1627.937,88.464Zm11.409-3.958a3.977,3.977,0,0,1-1.394,3.105,4.437,4.437,0,0,1-1.486.834,5.52,5.52,0,0,1-1.784.286,5.265,5.265,0,0,1-1.777-.3,4.648,4.648,0,0,1-1.48-.846,3.976,3.976,0,0,1-1.01-1.327,4.021,4.021,0,0,1-.372-1.754V75.581a4.085,4.085,0,0,1,.372-1.771,3.953,3.953,0,0,1,1.01-1.334,4.475,4.475,0,0,1,1.48-.834,5.465,5.465,0,0,1,1.777-.286,5.52,5.52,0,0,1,1.784.286,4.512,4.512,0,0,1,1.486.828,3.98,3.98,0,0,1,1.017,1.327,4.081,4.081,0,0,1,.377,1.784Z" transform="translate(-1534.755 -68.148)" fill="#a2f37c"/>
      <path id="Caminho_166" data-name="Caminho 166" d="M1635.669,74.729a1.264,1.264,0,0,0-.414-.329,1.212,1.212,0,0,0-.548-.122,1.216,1.216,0,0,0-.974.451,1.494,1.494,0,0,0-.262.475,1.719,1.719,0,0,0-.091.56v8.572a1.774,1.774,0,0,0,.085.554,1.393,1.393,0,0,0,.25.462,1.21,1.21,0,0,0,.407.323,1.241,1.241,0,0,0,.56.122,1.222,1.222,0,0,0,.987-.4,1.472,1.472,0,0,0,.341-.986V75.764a1.827,1.827,0,0,0-.086-.56A1.386,1.386,0,0,0,1635.669,74.729Z" transform="translate(-1534.755 -68.148)" fill="#a2f37c"/>
    </g>
    <g id="Grupo_125" data-name="Grupo 125" transform="translate(0.03 53.511)">
      <path id="Caminho_167" data-name="Caminho 167" d="M1534.785,95.026a1.121,1.121,0,0,1,.238-.752.853.853,0,0,1,.685-.276h5.407a.817.817,0,0,1,.673.276,1.166,1.166,0,0,1,.224.752v29.118h9.073c.51,0,.765.3.765.9v4.484q0,.977-.765.976h-15.377q-.922,0-.923-1Z" transform="translate(-1534.785 -93.444)" fill="#a2f37c"/>
      <path id="Caminho_168" data-name="Caminho 168" d="M1554.286,102.6a8.862,8.862,0,0,1,.8-3.838,8.587,8.587,0,0,1,2.189-2.888,9.64,9.64,0,0,1,3.2-1.806,11.862,11.862,0,0,1,3.85-.62,11.986,11.986,0,0,1,3.864.62,9.752,9.752,0,0,1,3.218,1.793,8.609,8.609,0,0,1,2.2,2.875,8.813,8.813,0,0,1,.818,3.864v19.333a8.632,8.632,0,0,1-3.02,6.726,9.64,9.64,0,0,1-3.218,1.806,11.987,11.987,0,0,1-3.864.62,11.436,11.436,0,0,1-3.85-.646,10.027,10.027,0,0,1-3.2-1.833,8.551,8.551,0,0,1-2.994-6.673Zm7.227,18.963a3.826,3.826,0,0,0,.185,1.2,3.039,3.039,0,0,0,.541,1,2.659,2.659,0,0,0,.883.7,2.687,2.687,0,0,0,1.213.263,2.649,2.649,0,0,0,2.137-.87,3.194,3.194,0,0,0,.738-2.136V102.991a3.981,3.981,0,0,0-.185-1.213,3.066,3.066,0,0,0-.553-1.028,2.749,2.749,0,0,0-.9-.713,2.631,2.631,0,0,0-1.187-.263,2.686,2.686,0,0,0-1.213.263,2.729,2.729,0,0,0-.9.713,3.265,3.265,0,0,0-.567,1.028,3.728,3.728,0,0,0-.2,1.213Z" transform="translate(-1534.785 -93.444)" fill="#a2f37c"/>
      <path id="Caminho_169" data-name="Caminho 169" d="M1579.075,98.969a8.818,8.818,0,0,1,2.084-2.9,9.7,9.7,0,0,1,3.178-1.925,11.388,11.388,0,0,1,4.062-.7,10.4,10.4,0,0,1,4.259.8,8.7,8.7,0,0,1,2.981,2.11,8.535,8.535,0,0,1,1.741,2.967,10.5,10.5,0,0,1,.567,3.4v2.558a1.741,1.741,0,0,1-.172.884.73.73,0,0,1-.672.277h-5.064a.77.77,0,0,1-.66-.251,1.374,1.374,0,0,1-.184-.8v-2.453a3.694,3.694,0,0,0-.185-1.148,3.388,3.388,0,0,0-.527-1.015,2.636,2.636,0,0,0-.858-.725,2.429,2.429,0,0,0-1.173-.277,2.73,2.73,0,0,0-1.187.25,2.807,2.807,0,0,0-.91.686,3.209,3.209,0,0,0-.593.989,3.278,3.278,0,0,0-.212,1.187v18.647a3.856,3.856,0,0,0,.185,1.2,3.065,3.065,0,0,0,.554,1.015,2.676,2.676,0,0,0,.91.713,3.116,3.116,0,0,0,2.506,0,2.549,2.549,0,0,0,.9-.713,3.183,3.183,0,0,0,.541-1.015,3.853,3.853,0,0,0,.185-1.2v-3.139a1.3,1.3,0,0,1,.184-.817.806.806,0,0,1,.633-.211h5.064a1.033,1.033,0,0,1,.686.185,1.062,1.062,0,0,1,.211.791v3.587a9.256,9.256,0,0,1-.765,3.837,8.641,8.641,0,0,1-2.07,2.889,8.875,8.875,0,0,1-3.086,1.806,11.438,11.438,0,0,1-3.785.62,11.987,11.987,0,0,1-3.864-.62,9.64,9.64,0,0,1-3.218-1.806,8.589,8.589,0,0,1-2.189-2.889,8.871,8.871,0,0,1-.8-3.837V102.6A8.76,8.76,0,0,1,1579.075,98.969Z" transform="translate(-1534.785 -93.444)" fill="#a2f37c"/>
      <path id="Caminho_170" data-name="Caminho 170" d="M1621.641,129.525q.264.977-.5.976h-5.46a1.319,1.319,0,0,1-.712-.2.848.848,0,0,1-.369-.672l-.685-4.4h-5.909l-.659,4.4a.924.924,0,0,1-.395.672,1.273,1.273,0,0,1-.686.2h-5.46c-.527,0-.7-.334-.527-1l7.306-34.577q.237-.924,1.028-.923h4.695a1.044,1.044,0,0,1,1.055.923Zm-12.765-9.891h4.167l-1.794-11.71-.29-3.086-.29,3.086Z" transform="translate(-1534.785 -93.444)" fill="#a2f37c"/>
      <path id="Caminho_171" data-name="Caminho 171" d="M1625,95.026a1.115,1.115,0,0,1,.238-.752.853.853,0,0,1,.685-.276h5.407a.817.817,0,0,1,.673.276,1.166,1.166,0,0,1,.224.752v29.118h9.073c.509,0,.765.3.765.9v4.484c0,.651-.256.976-.765.976h-15.377q-.924,0-.923-1Z" transform="translate(-1534.785 -93.444)" fill="#a2f37c"/>
    </g>
  </g>
  <g id="Grupo_129" data-name="Grupo 129" transform="translate(119.819 70.895)">
    <g id="Grupo_128" data-name="Grupo 128" transform="translate(28.814 1.111)">
      <g id="Grupo_127" data-name="Grupo 127">
        <path id="Caminho_172" data-name="Caminho 172" d="M1685.758,111.939a.681.681,0,0,1,.319.073.728.728,0,0,1,.24.2.9.9,0,0,1,.151.288,1.209,1.209,0,0,1,0,.695.9.9,0,0,1-.15.29.722.722,0,0,1-.239.2.684.684,0,0,1-.321.074h-1.609a.685.685,0,0,1-.319-.074.747.747,0,0,1-.24-.2.88.88,0,0,1-.15-.29,1.148,1.148,0,0,1-.052-.348,1.105,1.105,0,0,1,.054-.347.92.92,0,0,1,.152-.288.745.745,0,0,1,.239-.2.672.672,0,0,1,.316-.073Zm.153.716" transform="translate(-1683.388 -111.939)" fill="#8368e0"/>
      </g>
    </g>
    <path id="Caminho_173" data-name="Caminho 173" d="M1666.686,130.762a.647.647,0,0,1-.077.332.3.3,0,0,1-.279.131h-2.506a.259.259,0,0,1-.22-.137.583.583,0,0,1-.089-.326V118.648a3.676,3.676,0,0,1,.357-1.6,4.261,4.261,0,0,1,.967-1.312,4.569,4.569,0,0,1,1.414-.885,4.505,4.505,0,0,1,1.692-.321,4.552,4.552,0,0,1,1.7.321,4.478,4.478,0,0,1,1.414.885,4.394,4.394,0,0,1,.967,1.312,3.625,3.625,0,0,1,.363,1.6v12.1a.626.626,0,0,1-.089.327.314.314,0,0,1-.291.148H1669.6a.322.322,0,0,1-.279-.142.559.559,0,0,1-.1-.333V118.826a1.746,1.746,0,0,0-.083-.54,1.385,1.385,0,0,0-.244-.451,1.189,1.189,0,0,0-.4-.315,1.271,1.271,0,0,0-1.074,0,1.273,1.273,0,0,0-.4.315,1.323,1.323,0,0,0-.25.451,1.742,1.742,0,0,0-.083.54Z" transform="translate(-1654.574 -110.828)" fill="#8368e0"/>
    <path id="Caminho_174" data-name="Caminho 174" d="M1673.33,118.794a4.022,4.022,0,0,1,.363-1.736,3.939,3.939,0,0,1,.979-1.307,4.265,4.265,0,0,1,1.432-.817,5.438,5.438,0,0,1,3.451,0,4.378,4.378,0,0,1,1.444.811,3.909,3.909,0,0,1,.992,1.3,4.009,4.009,0,0,1,.368,1.748v8.747a3.91,3.91,0,0,1-1.36,3.044,4.321,4.321,0,0,1-1.444.817,5.313,5.313,0,0,1-1.728.28,5.065,5.065,0,0,1-1.723-.292,4.432,4.432,0,0,1-1.432-.829,3.9,3.9,0,0,1-1.342-3.02Zm3.215,8.58a1.705,1.705,0,0,0,.085.543,1.361,1.361,0,0,0,.248.454,1.215,1.215,0,0,0,.4.316,1.2,1.2,0,0,0,.55.119,1.356,1.356,0,0,0,.556-.107,1.234,1.234,0,0,0,.411-.292,1.309,1.309,0,0,0,.259-.43,1.5,1.5,0,0,0,.091-.531v-8.473a1.655,1.655,0,0,0-.091-.549,1.536,1.536,0,0,0-.253-.465,1.2,1.2,0,0,0-.405-.323,1.224,1.224,0,0,0-.544-.119,1.246,1.246,0,0,0-.556.119,1.191,1.191,0,0,0-.405.323,1.517,1.517,0,0,0-.254.465,1.683,1.683,0,0,0-.091.549Z" transform="translate(-1654.574 -110.828)" fill="#8368e0"/>
    <path id="Caminho_175" data-name="Caminho 175" d="M1683.366,115.059a.528.528,0,0,1,.1-.342.351.351,0,0,1,.291-.127h2.375a.35.35,0,0,1,.3.127.558.558,0,0,1,.095.342v15.709q0,.457-.392.457h-2.375c-.262,0-.392-.152-.392-.457Z" transform="translate(-1654.574 -110.828)" fill="#8368e0"/>
    <path id="Caminho_176" data-name="Caminho 176" d="M1687.545,126.722a.909.909,0,0,1,.077-.439.349.349,0,0,1,.326-.13h2.16c.166,0,.275.035.326.107a.681.681,0,0,1,.077.379v.534a1.944,1.944,0,0,0,.125.748,1.391,1.391,0,0,0,.32.481,1.158,1.158,0,0,0,.439.261,1.563,1.563,0,0,0,.469.077,1.368,1.368,0,0,0,.528-.1,1.29,1.29,0,0,0,.427-.285,1.322,1.322,0,0,0,.291-.445,1.525,1.525,0,0,0,.107-.581,2.312,2.312,0,0,0-.119-.766,2.257,2.257,0,0,0-.374-.658,4.953,4.953,0,0,0-.646-.659q-.391-.338-.938-.789-.926-.759-1.608-1.335a7.123,7.123,0,0,1-1.121-1.163,4.162,4.162,0,0,1-.653-1.294,6.037,6.037,0,0,1-.213-1.726,4.606,4.606,0,0,1,.195-1.389,4.021,4.021,0,0,1,.528-1.091,3.691,3.691,0,0,1,.76-.807,4.666,4.666,0,0,1,.9-.552,4.418,4.418,0,0,1,.943-.321,4.31,4.31,0,0,1,.89-.1,4.543,4.543,0,0,1,1.7.308,3.882,3.882,0,0,1,1.329.872,3.987,3.987,0,0,1,.873,1.365,4.863,4.863,0,0,1,.314,1.786v.676a.532.532,0,0,1-.089.35.5.5,0,0,1-.374.1h-2.124c-.15,0-.245-.033-.285-.1a.744.744,0,0,1-.059-.35v-.664a2,2,0,0,0-.083-.582,1.437,1.437,0,0,0-.243-.474,1.167,1.167,0,0,0-.4-.321,1.234,1.234,0,0,0-.558-.118,1.287,1.287,0,0,0-.451.083,1.159,1.159,0,0,0-.409.261,1.35,1.35,0,0,0-.3.463,1.786,1.786,0,0,0-.118.688,2.051,2.051,0,0,0,.124.747,2.166,2.166,0,0,0,.356.6,3.832,3.832,0,0,0,.558.54q.327.261.718.569.831.641,1.56,1.24a8.289,8.289,0,0,1,1.27,1.288,5.594,5.594,0,0,1,.849,1.525,5.685,5.685,0,0,1,.308,1.964,4.037,4.037,0,0,1-.314,1.578,3.986,3.986,0,0,1-.89,1.311,4.271,4.271,0,0,1-1.383.9,5.1,5.1,0,0,1-3.667-.018,3.832,3.832,0,0,1-2.153-2.3,4.845,4.845,0,0,1-.267-1.608Z" transform="translate(-1654.574 -110.828)" fill="#8368e0"/>
    <path id="Caminho_177" data-name="Caminho 177" d="M1654.575,115.089a.508.508,0,0,1,.107-.342.373.373,0,0,1,.3-.125h7.163c.224,0,.335.147.335.443V117.1c0,.288-.111.431-.335.431h-4.384v3.846h3.5a.409.409,0,0,1,.269.1.4.4,0,0,1,.114.324v2.048a.357.357,0,0,1-.383.408h-3.5v4.06h4.444a.333.333,0,0,1,.245.1.416.416,0,0,1,.1.306v2.06a.43.43,0,0,1-.1.317.333.333,0,0,1-.245.1h-7.223c-.272,0-.408-.151-.408-.455Zm5.055-1.722a.932.932,0,0,1-.282.335.633.633,0,0,1-.317.072h-1.438a.31.31,0,0,1-.251-.143.443.443,0,0,1-.012-.42l.862-1.964a.946.946,0,0,1,.192-.33.444.444,0,0,1,.311-.089h1.8a.3.3,0,0,1,.305.185.418.418,0,0,1-.041.389Z" transform="translate(-1654.574 -110.828)" fill="#8368e0"/>
  </g>
</svg>
